<?xml version="1.0" encoding="UTF-8"?>
<svg id="Ebene_1" xmlns="http://www.w3.org/2000/svg" viewBox="0 0 203.5 203.5">
  <defs>
    <style>
      .cls-1 {
        fill: #020202;
      }
    </style>
  </defs>
  <path class="cls-1" d="M161.99,203.5H41.51c-22.89,0-41.51-18.62-41.51-41.51V41.51C0,18.62,18.62,0,41.51,0h120.48c22.89,0,41.51,18.62,41.51,41.51v120.48c0,22.89-18.62,41.51-41.51,41.51ZM41.51,6C21.93,6,6,21.93,6,41.51v120.48c0,19.58,15.93,35.51,35.51,35.51h120.48c19.58,0,35.51-15.93,35.51-35.51V41.51c0-19.58-15.93-35.51-35.51-35.51H41.51Z"/>
  <path class="cls-1" d="M105.52,64.94c0,9.44.17,18.88-.08,28.32-.1,3.71.89,4.9,4.75,4.86,19.04-.2,38.08-.08,57.12-.1,2.87,0,5.9.04,5.74,3.91-.16,3.61-3.05,3.97-5.98,3.84-1.12-.05-2.24,0-3.36,0-17.76,0-35.52.13-53.28-.1-4.03-.05-5.06,1.08-5.01,5.05.22,18.08.09,36.16.09,54.24,0,1.12-.04,2.24,0,3.36.12,2.78-.9,4.83-3.91,4.81-3.07-.02-3.8-2.2-3.8-4.92.04-19.04-.15-38.08.14-57.12.07-4.6-1.44-5.46-5.63-5.41-17.6.21-35.2.09-52.8.09-.96,0-1.92-.02-2.88,0-3.02.08-6.18.02-6.19-4.06-.01-3.98,3.18-3.68,5.94-3.68,18.24,0,36.48.03,54.72-.02,7.72-.02,6.69.9,6.71-6.54.05-18.4.05-36.8-.01-55.2,0-2.94.24-5.83,3.8-5.88,3.56-.06,3.98,2.75,3.95,5.75-.09,9.6-.04,19.2-.03,28.8Z"/>
</svg>