<?xml version="1.0" encoding="UTF-8"?>
<svg id="Ebene_1" xmlns="http://www.w3.org/2000/svg" viewBox="0 0 199.3 199.3">
  <defs>
    <style>
      .cls-1 {
        fill: #fff;
      }
    </style>
  </defs>
  <path d="M106.47,199.3h-13.99c-.49-.13-.97-.3-1.46-.37-3.45-.46-6.94-.71-10.36-1.37-17.28-3.35-32.69-10.69-45.99-22.25C16.24,159.28,4.96,139.21,1.15,115.02.72,112.29.38,109.56,0,106.83c0-4.66,0-9.32,0-13.99.12-.42.33-.84.35-1.27.44-6.93,1.77-13.7,3.78-20.33C18.58,23.39,66.56-7.54,118.23,2.09c17.32,3.23,32.87,10.54,46.02,22.29,28.32,25.3,39.22,56.95,32.91,94.3-2.92,17.3-10.61,32.61-22.13,45.88-16.04,18.47-36.13,29.77-60.35,33.59-2.73.43-5.47.77-8.2,1.15ZM75.81,109.52c-22.4-16.31-23-45.04-8.03-61.97,15.95-18.04,42.52-19.3,60.05-3.59,16.44,14.74,20.87,47.23-4.52,65.57,21.87,8.87,36.03,24.66,42.54,47.37,28.77-32.4,30.48-87.25-7.3-121.87C121.48,1.06,63.35,5.32,31.6,44.29c-31.28,38.39-21.67,87.8,1.55,112.45,6.46-22.64,20.71-38.28,42.66-47.21ZM100.93,187.59c1.91-.15,5.27-.32,8.61-.69,15.84-1.76,29.98-7.69,42.87-17.04,2.99-2.17,3.27-4.27,2.63-7.41-4.9-24.17-25.51-42.86-50.3-45.04-15.41-1.36-29.32,2.9-41.28,12.85-11.14,9.26-17.85,21.1-19.92,35.47-.1.7.28,1.8.81,2.23,16.09,12.93,34.52,19.39,56.58,19.64ZM129.64,74.92c.1-16.46-13.5-30.14-30.07-30.25-16.46-.11-29.98,13.32-30.25,30.06-.27,16.42,13.29,30.1,29.97,30.23,16.7.13,30.25-13.28,30.35-30.04Z"/>
  <path class="cls-1" d="M106.47,199.3c2.73-.38,5.47-.72,8.2-1.15,24.22-3.82,44.31-15.12,60.35-33.59,11.52-13.27,19.21-28.57,22.13-45.88,6.31-37.35-4.59-69-32.91-94.3-13.15-11.75-28.7-19.06-46.02-22.29C66.56-7.54,18.58,23.39,4.13,71.24c-2,6.63-3.34,13.4-3.78,20.33-.03.43-.23.85-.35,1.27C0,61.9,0,30.96,0,0h199.3v199.3h-92.82Z"/>
  <path class="cls-1" d="M0,106.83c.38,2.73.72,5.47,1.15,8.19,3.81,24.19,15.09,44.26,33.53,60.29,13.3,11.56,28.7,18.9,45.99,22.25,3.41.66,6.9.91,10.36,1.37.49.07.97.24,1.46.37H0C0,168.47,0,137.65,0,106.83Z"/>
  <path class="cls-1" d="M75.81,109.52c-21.95,8.93-36.19,24.57-42.66,47.21C9.93,132.08.33,82.68,31.6,44.29,63.35,5.32,121.48,1.06,158.55,35.04c37.79,34.63,36.08,89.47,7.3,121.87-6.51-22.71-20.68-38.5-42.54-47.37,25.38-18.34,20.96-50.83,4.52-65.57-17.53-15.71-44.1-14.46-60.05,3.59-14.97,16.93-14.37,45.66,8.03,61.97Z"/>
  <path class="cls-1" d="M100.93,187.59c-22.07-.24-40.49-6.71-56.58-19.64-.54-.43-.92-1.52-.81-2.23,2.07-14.38,8.79-26.21,19.92-35.47,11.96-9.94,25.87-14.2,41.28-12.85,24.79,2.18,45.4,20.87,50.3,45.04.64,3.14.36,5.24-2.63,7.41-12.89,9.35-27.02,15.29-42.87,17.04-3.34.37-6.7.54-8.61.69Z"/>
  <path class="cls-1" d="M129.64,74.92c-.1,16.76-13.65,30.17-30.35,30.04-16.68-.13-30.24-13.81-29.97-30.23.27-16.74,13.79-30.17,30.25-30.06,16.57.11,30.16,13.79,30.07,30.25Z"/>
</svg>